<svg width="24" height="28" viewBox="0 0 24 28" fill="none" xmlns="http://www.w3.org/2000/svg">
<g filter="url(#filter0_d_364_274)">
<path d="M6 7.60547C6 5.61328 7.05469 3.77734 8.8125 2.76172C10.5312 1.74609 12.6797 1.74609 14.4375 2.76172C16.1562 3.77734 17.25 5.61328 17.25 7.60547C17.25 9.63672 16.1562 11.4727 14.4375 12.4883C12.6797 13.5039 10.5312 13.5039 8.8125 12.4883C7.05469 11.4727 6 9.63672 6 7.60547ZM11.625 5.10547C11.9375 5.10547 12.25 4.83203 12.25 4.48047C12.25 4.16797 11.9375 3.85547 11.625 3.85547C9.55469 3.85547 7.875 5.53516 7.875 7.60547C7.875 7.95703 8.14844 8.23047 8.5 8.23047C8.8125 8.23047 9.125 7.95703 9.125 7.60547C9.125 6.23828 10.2188 5.10547 11.625 5.10547ZM10.375 20.7305V14.4023C10.7656 14.4414 11.1953 14.4805 11.625 14.4805C12.0156 14.4805 12.4453 14.4414 12.875 14.4023V20.7305C12.875 21.4336 12.2891 21.9805 11.625 21.9805C10.9219 21.9805 10.375 21.4336 10.375 20.7305Z" fill="#279CF4"/>
<circle cx="10.875" cy="6.98047" r="3.5" fill="#279CF4"/>
<circle cx="9.875" cy="4.98047" r="1.5" fill="white"/>
</g>
<defs>
<filter id="filter0_d_364_274" x="2" y="0" width="19.25" height="27.9805" filterUnits="userSpaceOnUse" color-interpolation-filters="sRGB">
<feFlood flood-opacity="0" result="BackgroundImageFix"/>
<feColorMatrix in="SourceAlpha" type="matrix" values="0 0 0 0 0 0 0 0 0 0 0 0 0 0 0 0 0 0 127 0" result="hardAlpha"/>
<feOffset dy="2"/>
<feGaussianBlur stdDeviation="2"/>
<feComposite in2="hardAlpha" operator="out"/>
<feColorMatrix type="matrix" values="0 0 0 0 0 0 0 0 0 0 0 0 0 0 0 0 0 0 0.35 0"/>
<feBlend mode="normal" in2="BackgroundImageFix" result="effect1_dropShadow_364_274"/>
<feBlend mode="normal" in="SourceGraphic" in2="effect1_dropShadow_364_274" result="shape"/>
</filter>
</defs>
</svg>
