<svg width="19" height="19" viewBox="0 0 19 19" fill="none" xmlns="http://www.w3.org/2000/svg">
<circle cx="9.5" cy="9.5" r="8.5" fill="#279CF4" stroke="#279CF4"/>
<rect x="5" y="11" width="9" height="2" fill="#279CF4"/>
<path fill-rule="evenodd" clip-rule="evenodd" d="M11.2193 13.4646C10.6955 13.5929 10.1526 13.6596 9.59921 13.6596C9.06221 13.6596 8.53502 13.5959 8.02533 13.4747L7.57617 15.7465C7.54633 15.8977 7.64384 16.0214 7.79277 16.0214H8.34392H8.36241H8.92281H10.3238H10.8842H10.9824H11.4936C11.6208 16.0214 11.7004 15.8977 11.6706 15.7465L11.2193 13.4646Z" fill="white"/>
<path fill-rule="evenodd" clip-rule="evenodd" d="M11.455 6.02017C10.9162 6.02017 10.4794 6.45688 10.4794 6.99577C10.4794 7.08305 10.4919 7.16713 10.5134 7.24759L6.95105 10.81C6.85619 10.9048 6.85619 11.06 6.95105 11.1549L7.296 11.4999C7.39086 11.5947 7.54608 11.5947 7.64095 11.4999L11.2034 7.9374C11.2839 7.95887 11.3679 7.97146 11.455 7.97138C11.9939 7.97138 12.4307 7.53484 12.4306 6.99577C12.4307 6.45688 11.994 6.02017 11.455 6.02017Z" fill="white"/>
<path fill-rule="evenodd" clip-rule="evenodd" d="M11.3916 3.79263C12.2756 3.79263 13.1065 4.1368 13.7313 4.76168C14.3563 5.38664 14.7005 6.21753 14.7005 7.10147C14.7004 7.22608 14.7509 7.33888 14.8326 7.42054C14.9143 7.50221 15.027 7.55266 15.1517 7.55266C15.4009 7.55266 15.6029 7.35069 15.6029 7.10147C15.603 4.77953 13.7136 2.89016 11.3916 2.89024C11.1424 2.89024 10.9405 3.09221 10.9405 3.34144C10.9404 3.59058 11.1425 3.79272 11.3916 3.79263Z" fill="white"/>
<path fill-rule="evenodd" clip-rule="evenodd" d="M13.1105 5.38269C12.6514 4.92365 12.041 4.6708 11.3919 4.6708C11.1427 4.67071 10.9407 4.87277 10.9407 5.12199C10.9406 5.37113 11.1425 5.5731 11.3919 5.57327C11.8 5.57327 12.1838 5.73229 12.4723 6.02084C12.7609 6.30939 12.9198 6.69306 12.9198 7.10114C12.9198 7.22584 12.9703 7.33855 13.0519 7.42022C13.1336 7.50188 13.2464 7.55242 13.371 7.55233C13.6202 7.5525 13.8223 7.35045 13.8222 7.10114C13.8224 6.45212 13.5696 5.84182 13.1105 5.38269Z" fill="white"/>
<path fill-rule="evenodd" clip-rule="evenodd" d="M6.76949 4.41215C4.75844 6.4232 4.75835 9.68392 6.76949 11.6947C8.78029 13.7057 12.0412 13.7058 14.0521 11.6948C11.9618 9.60466 8.84022 6.4827 6.76949 4.41215Z" fill="white"/>
</svg>
