<svg width="20" height="18" viewBox="0 0 20 18" fill="none" xmlns="http://www.w3.org/2000/svg">
<path d="M12.4688 1.0625C12.8438 1.15625 13.0625 1.59375 12.9375 2L8.4375 16.5C8.34375 16.875 7.90625 17.0938 7.5 16.9688C7.125 16.8438 6.90625 16.4375 7.03125 16.0312L11.5312 1.53125C11.6562 1.15625 12.0625 0.9375 12.4688 1.0625ZM14.6875 4.75C14.9688 4.4375 15.4375 4.4375 15.75 4.71875L19.75 8.46875C19.9062 8.59375 20 8.8125 20 9C20 9.21875 19.9062 9.40625 19.75 9.5625L15.75 13.3125C15.4375 13.5938 14.9688 13.5625 14.6875 13.2812C14.4062 12.9688 14.4062 12.5 14.7188 12.2188L18.125 9L14.7188 5.8125C14.4062 5.53125 14.4062 5.0625 14.6875 4.75ZM5.28125 4.75C5.5625 5.0625 5.5625 5.53125 5.25 5.8125L1.84375 9L5.25 12.2188C5.5625 12.5 5.5625 12.9688 5.28125 13.2812C5 13.5938 4.53125 13.5938 4.21875 13.3125L0.21875 9.5625C0.0625 9.40625 0 9.21875 0 9C0 8.8125 0.0625 8.59375 0.21875 8.46875L4.21875 4.71875C4.53125 4.4375 5 4.4375 5.28125 4.75Z" fill="#222222"/>
</svg>
