<svg width="16" height="18" viewBox="0 0 16 18" fill="none" xmlns="http://www.w3.org/2000/svg">
<path d="M14.5 9C14.5 6.6875 13.25 4.5625 11.25 3.375C9.21875 2.21875 6.75 2.21875 4.75 3.375C2.71875 4.5625 1.5 6.6875 1.5 9C1.5 11.3438 2.71875 13.4688 4.75 14.6562C6.75 15.8125 9.21875 15.8125 11.25 14.6562C13.25 13.4688 14.5 11.3438 14.5 9ZM0 9C0 6.15625 1.5 3.53125 4 2.09375C6.46875 0.65625 9.5 0.65625 12 2.09375C14.4688 3.53125 16 6.15625 16 9C16 11.875 14.4688 14.5 12 15.9375C9.5 17.375 6.46875 17.375 4 15.9375C1.5 14.5 0 11.875 0 9ZM9.5625 11.1875L5.0625 12.9062C4.46875 13.1562 3.84375 12.5312 4.09375 11.9375L5.8125 7.4375C5.9375 7.15625 6.125 6.96875 6.40625 6.84375L10.9062 5.125C11.5312 4.875 12.125 5.46875 11.875 6.09375L10.1562 10.5938C10.0312 10.875 9.84375 11.0625 9.5625 11.1875ZM9 9C9 8.46875 8.53125 8 8 8C7.4375 8 7 8.46875 7 9C7 9.5625 7.4375 10 8 10C8.53125 10 9 9.5625 9 9Z" fill="#222222"/>
</svg>
