<svg width="20" height="20" viewBox="0 0 20 20" fill="none" xmlns="http://www.w3.org/2000/svg">
<path d="M9.125 10C9.125 9.53516 9.50781 9.125 10 9.125C10.4648 9.125 10.875 9.53516 10.875 10C10.875 10.4922 10.4648 10.875 10 10.875C9.50781 10.875 9.125 10.4922 9.125 10ZM10 3C10.4648 3 10.875 3.41016 10.875 3.875V4.17578C13.418 4.55859 15.4414 6.58203 15.8242 9.125H16.125C16.5898 9.125 17 9.53516 17 10C17 10.4922 16.5898 10.875 16.125 10.875H15.8242C15.4414 13.4453 13.418 15.4688 10.875 15.8516V16.125C10.875 16.6172 10.4648 17 10 17C9.50781 17 9.125 16.6172 9.125 16.125V15.8516C6.55469 15.4688 4.53125 13.4453 4.14844 10.875H3.875C3.38281 10.875 3 10.4922 3 10C3 9.53516 3.38281 9.125 3.875 9.125H4.14844C4.53125 6.58203 6.55469 4.55859 9.125 4.17578V3.875C9.125 3.41016 9.50781 3 10 3ZM9.125 14.0742V13.5C9.125 13.0352 9.50781 12.625 10 12.625C10.4648 12.625 10.875 13.0352 10.875 13.5V14.0742C12.4609 13.7461 13.7188 12.4883 14.0469 10.875H13.5C13.0078 10.875 12.625 10.4922 12.625 10C12.625 9.53516 13.0078 9.125 13.5 9.125H14.0469C13.7188 7.53906 12.4609 6.28125 10.875 5.95312V6.5C10.875 6.99219 10.4648 7.375 10 7.375C9.50781 7.375 9.125 6.99219 9.125 6.5V5.95312C7.51172 6.28125 6.25391 7.53906 5.92578 9.125H6.5C6.96484 9.125 7.375 9.53516 7.375 10C7.375 10.4922 6.96484 10.875 6.5 10.875H5.92578C6.25391 12.4883 7.51172 13.7461 9.125 14.0742Z" fill="black"/>
</svg>
