<svg width="14" height="10" viewBox="0 0 14 10" fill="none" xmlns="http://www.w3.org/2000/svg">
<path fill-rule="evenodd" clip-rule="evenodd" d="M11.9603 5.45475C9.86143 5.45475 1.71988 5.23034 0.804603 5.23034C-0.110877 5.23034 -0.102884 4.54522 0.137309 4.54522C0.791897 4.54522 8.23296 4.56243 10.5962 4.54522C11.0571 4.54194 11.8033 4.56796 12.415 4.09065C13.3026 2.58555 11.9904 1.92359 11.9685 1.92359C11.4079 1.92359 11.3374 2.38471 11.3596 2.53964C11.4434 3.12906 11.7522 2.59191 11.9701 3.15468C12.1783 3.69224 10.3496 4.4118 10.3496 2.75238C10.3496 1.73156 11.1675 0.903997 12.1767 0.903997C13.1856 0.903997 14.0037 1.50591 14.0037 3.20694C13.9699 4.2667 12.9694 5.45475 11.9603 5.45475ZM8.06864 4.09189C7.42123 4.09189 2.64422 4.09189 1.72074 4.09189C0.797682 4.09189 0.805469 3.4084 1.04689 3.4084C1.51375 3.4084 7.60117 3.54387 8.09508 3.18112C8.35187 2.99278 8.68306 2.19781 8.68306 1.63175C8.68306 1.3311 8.4277 1.01775 7.86227 1.01775C7.29683 1.01775 7.22592 1.47805 7.24805 1.63278C7.33269 2.22137 7.64421 1.68504 7.8639 2.24679C8.07397 2.78353 6.22928 3.50165 6.22928 1.8451C6.22928 0.826124 7.05438 0 8.07213 0C9.09008 0 9.91518 0.826124 9.91518 1.8451C9.91518 2.86428 9.08659 4.09189 8.06864 4.09189ZM3.32044 5.90949C4.23654 5.90949 8.34995 5.90826 8.99244 5.90826C10.0024 5.90826 10.8244 7.13587 10.8244 8.15484C10.8244 9.17382 10.0057 9.99994 8.99592 9.99994C7.98597 9.99994 7.16722 9.17382 7.16722 8.15484C7.16722 6.49829 8.99756 7.21661 8.78914 7.75336C8.57108 8.31511 8.26202 7.77877 8.1782 8.36716C8.15607 8.52189 8.22657 8.98219 8.7877 8.98219C9.34863 8.98219 9.60194 8.66884 9.60194 8.36819C9.60194 7.80213 9.25907 7.00737 9.00453 6.81882C8.51431 6.45628 3.47026 6.59154 2.63839 6.59154C2.398 6.59154 2.40435 5.90949 3.32044 5.90949Z" fill="#9747FF"/>
</svg>
