<svg width="20" height="20" viewBox="0 0 20 20" fill="none" xmlns="http://www.w3.org/2000/svg">
<path d="M12.4062 3H16.3437C16.6992 3 17 3.32227 17 3.70312V7.92188C17 8.21484 16.8359 8.47852 16.5898 8.5957C16.3437 8.68359 16.043 8.625 15.8789 8.41992L14.8125 7.27734L12.4336 9.82617C12.1602 10.1191 11.75 10.1191 11.5039 9.82617L10.6289 8.88867C10.3555 8.625 10.3555 8.18555 10.6289 7.92188L13.0078 5.37305L11.9414 4.20117C11.75 4.02539 11.6953 3.70312 11.7773 3.43945C11.8867 3.17578 12.1328 3 12.4062 3ZM7.59375 18H3.65625C3.27344 18 3 17.707 3 17.2969V13.0781C3 12.8145 3.13672 12.5508 3.38281 12.4336C3.62891 12.3457 3.92969 12.4043 4.12109 12.5801L5.1875 13.7227L7.56641 11.1738C7.8125 10.9102 8.22266 10.9102 8.46875 11.1738L9.34375 12.1113C9.61719 12.4043 9.61719 12.8438 9.34375 13.1074L6.96484 15.6562L8.03125 16.7988C8.22266 17.0039 8.27734 17.3262 8.19531 17.5898C8.08594 17.8535 7.83984 18 7.56641 18H7.59375Z" fill="black"/>
</svg>
