<svg width="13" height="13" viewBox="0 0 13 13" fill="none" xmlns="http://www.w3.org/2000/svg">
<path d="M6.29031 0.640625C6.64187 0.476562 7.04031 0.476562 7.39187 0.640625L12.5247 3.00781C12.7122 3.10156 12.8528 3.28906 12.8528 3.5C12.8528 3.73438 12.7122 3.92188 12.5247 4.01562L7.39187 6.38281C7.04031 6.54688 6.64187 6.54688 6.29031 6.38281L1.15749 4.01562C0.969994 3.92188 0.852806 3.73438 0.852806 3.5C0.852806 3.28906 0.969994 3.10156 1.15749 3.00781L6.29031 0.640625ZM11.2591 5.42188L12.5247 6.00781C12.7122 6.10156 12.8528 6.28906 12.8528 6.5C12.8528 6.73438 12.7122 6.92188 12.5247 7.01562L7.39187 9.38281C7.04031 9.54688 6.64187 9.54688 6.29031 9.38281L1.15749 7.01562C0.969994 6.92188 0.852806 6.73438 0.852806 6.5C0.852806 6.28906 0.969994 6.10156 1.15749 6.00781L2.42312 5.42188L5.98562 7.0625C6.52468 7.32031 7.15749 7.32031 7.69656 7.0625L11.2591 5.42188ZM7.69656 10.0625L11.2591 8.42188L12.5247 9.00781C12.7122 9.10156 12.8528 9.28906 12.8528 9.5C12.8528 9.73438 12.7122 9.92188 12.5247 10.0156L7.39187 12.3828C7.04031 12.5469 6.64187 12.5469 6.29031 12.3828L1.15749 10.0156C0.969994 9.92188 0.852806 9.73438 0.852806 9.5C0.852806 9.28906 0.969994 9.10156 1.15749 9.00781L2.42312 8.42188L5.98562 10.0625C6.52468 10.3203 7.15749 10.3203 7.69656 10.0625Z" fill="#222222"/>
</svg>
