<svg width="11" height="9" viewBox="0 0 11 9" fill="none" xmlns="http://www.w3.org/2000/svg">
<path d="M0 0.75C0 0.351562 0.328125 0 0.75 0H9.75C10.1484 0 10.5 0.351562 10.5 0.75C10.5 1.17188 10.1484 1.5 9.75 1.5H0.75C0.328125 1.5 0 1.17188 0 0.75ZM0 4.5C0 4.10156 0.328125 3.75 0.75 3.75H9.75C10.1484 3.75 10.5 4.10156 10.5 4.5C10.5 4.92188 10.1484 5.25 9.75 5.25H0.75C0.328125 5.25 0 4.92188 0 4.5ZM10.5 8.25C10.5 8.67188 10.1484 9 9.75 9H0.75C0.328125 9 0 8.67188 0 8.25C0 7.85156 0.328125 7.5 0.75 7.5H9.75C10.1484 7.5 10.5 7.85156 10.5 8.25Z" fill="#222222"/>
</svg>
