<svg width="14" height="17" viewBox="0 0 14 17" fill="none" xmlns="http://www.w3.org/2000/svg">
<path d="M7.53125 1.21875L11.5 5.21875C11.8125 5.53125 11.8125 6 11.5 6.28125C11.2188 6.59375 10.75 6.59375 10.4375 6.28125L7.71875 3.5625V11.25C7.71875 11.6875 7.40625 12 6.96875 12C6.5625 12 6.21875 11.6875 6.21875 11.25V3.5625L3.5 6.28125C3.21875 6.59375 2.75 6.59375 2.46875 6.28125C2.15625 6 2.15625 5.53125 2.46875 5.21875L6.46875 1.21875C6.75 0.9375 7.21875 0.9375 7.53125 1.21875ZM1.5 11.75V14.25C1.5 14.9688 2.03125 15.5 2.75 15.5H11.25C11.9375 15.5 12.5 14.9688 12.5 14.25V11.75C12.5 11.3438 12.8125 11 13.25 11C13.6562 11 14 11.3438 14 11.75V14.25C14 15.7812 12.75 17 11.25 17H2.75C1.21875 17 0 15.7812 0 14.25V11.75C0 11.3438 0.3125 11 0.75 11C1.15625 11 1.5 11.3438 1.5 11.75Z" fill="#222222"/>
</svg>
