<svg width="20" height="20" viewBox="0 0 20 20" fill="none" xmlns="http://www.w3.org/2000/svg">
<path d="M15.9062 9C15.4688 6.5 13.5 4.53125 11 4.09375V6C11 6.5625 10.5312 7 10 7C9.4375 7 9 6.5625 9 6V4.09375C6.46875 4.53125 4.5 6.5 4.0625 9H6C6.53125 9 7 9.46875 7 10C7 10.5625 6.53125 11 6 11H4.0625C4.5 13.5312 6.46875 15.5 9 15.9375V14C9 13.4688 9.4375 13 10 13C10.5312 13 11 13.4688 11 14V15.9375C13.5 15.5 15.4688 13.5312 15.9062 11H14C13.4375 11 13 10.5625 13 10C13 9.46875 13.4375 9 14 9H15.9062ZM2 10C2 7.15625 3.5 4.53125 6 3.09375C8.46875 1.65625 11.5 1.65625 14 3.09375C16.4688 4.53125 18 7.15625 18 10C18 12.875 16.4688 15.5 14 16.9375C11.5 18.375 8.46875 18.375 6 16.9375C3.5 15.5 2 12.875 2 10Z" fill="black"/>
</svg>
