<svg width="201" height="55" viewBox="0 0 201 55" fill="none" xmlns="http://www.w3.org/2000/svg">
<g clip-path="url(#clip0_765_1206)">
<g filter="url(#filter0_d_765_1206)">
<path d="M33.5606 4.99212C45.6842 2.61406 56.1566 4.65751 56.9522 9.55657C57.403 12.3353 54.6414 15.4338 49.9551 18.0312C50.3387 18.7181 50.5079 19.7099 50.3868 21.0322C50.0724 24.469 46.7191 28.4937 36.9551 29.6288C33.5849 30.0209 30.3973 30.0129 27.6524 29.6777C28.1787 31.9446 30.4901 33.3423 34.2676 32.9951C36.9737 32.7465 39.3195 31.8931 40.7257 30.7812C41.4328 32.7196 37.8748 35.3804 34.3419 35.4326C31.8824 35.4682 29.6451 34.8123 28.0518 33.7021C29.5745 37.7314 33.1796 38.1877 34.8458 38.3622C34.7146 39.0898 31.8843 40.0997 29.1837 38.0683C27.0138 36.436 27.0064 34.1312 27.293 33.0937C26.5748 32.4291 26.0558 31.6491 25.7989 30.788C25.6918 30.4295 25.6379 29.6696 25.6456 29.3583C21.5351 28.5399 18.7957 26.8837 18.5772 24.6952C18.5149 24.0737 18.6598 23.4473 18.9874 22.829C15.6009 21.9105 13.3964 20.3132 13.0479 18.1679C12.2532 13.2687 21.4368 7.36966 33.5606 4.99212ZM46.1104 19.8671C43.252 21.0455 39.9708 22.0396 36.4395 22.7324C30.667 23.8644 25.2689 23.9915 21.1114 23.288C21.0615 23.5151 21.0604 23.7514 21.0518 24.041C20.9707 26.8245 26.1599 28.4313 34.4649 27.3339C42.7701 26.2364 46.7863 23.5261 46.4757 20.7626C46.4396 20.4448 46.3144 20.1459 46.1104 19.8671ZM50.8985 10.5644C50.3666 7.99389 43.3767 6.3995 33.4962 8.80462C23.6146 11.2098 16.035 15.2437 16.5665 17.8144C17.0978 20.384 25.5385 20.5181 35.419 18.1122C45.3006 15.707 51.4293 13.135 50.8985 10.5644Z" fill="white" fill-opacity="0.01"/>
<path fill-rule="evenodd" clip-rule="evenodd" d="M74.2509 15.8966C73.9728 15.9456 73.9223 15.9946 73.8717 16.0437L73.7706 16.534C73.0374 19.3778 72.3295 22.2217 71.6975 24.7714C71.3436 26.4384 71.0908 27.7623 70.9138 28.9146C70.6357 27.4436 70.3071 26.0462 69.9531 24.4036C69.1947 21.3636 68.5627 18.863 68.0823 16.8037C68.057 16.6075 67.7789 15.3572 67.602 15.3327C67.1722 15.3327 66.8183 15.3572 66.3632 15.4062C65.8829 15.4553 65.6806 15.6759 65.5542 15.9701C65.7564 16.4359 66.1862 18.4462 66.7424 20.7752C67.602 24.0604 68.6132 28.13 69.22 30.3365C69.3211 30.7042 69.4222 30.9739 69.4728 31.121C69.4728 31.121 70.2059 31.7829 70.8885 31.7094C71.3941 31.6603 71.6722 31.4887 72.0262 31.2191C72.1526 30.6797 73.2649 26.2423 73.4419 25.5313C73.9223 23.7172 74.4532 21.1675 74.7565 19.6475C75.161 21.6088 75.6414 23.9378 76.0459 25.5559C76.5515 27.4436 76.9813 29.2333 77.3605 30.7778C77.4111 30.9494 77.4363 31.072 77.4869 31.2191C77.4869 31.2191 78.2201 31.8565 78.8774 31.7584C79.383 31.7094 79.6611 31.4887 79.9897 31.2681C80.5459 30.0178 81.9869 24.1094 83.0235 20.0398C83.4027 18.6178 83.6808 17.5146 83.9589 16.534C84.0853 16.0437 84.1106 15.7495 84.1106 15.6024V15.5043C83.9083 15.4308 83.7313 15.4062 83.4532 15.4062C83.1752 15.3572 82.8718 15.3572 82.5937 15.3327C82.3409 15.3327 82.1892 15.3327 82.1133 15.4062C82.0375 15.5288 82.0122 15.7004 81.9364 15.9211C81.4308 18.1766 80.7734 20.8243 79.838 24.3546C79.4841 26.0462 79.1555 27.4436 78.8521 28.9881C78.5487 27.4436 78.2201 25.9726 77.8408 24.2565C77.0066 20.9223 76.3492 18.3482 75.97 16.7791C75.8689 16.3133 75.7425 15.9701 75.5655 15.7495C75.338 15.7495 75.1105 15.774 74.8829 15.7985C74.6807 15.823 74.4784 15.8475 74.2509 15.8966V15.8966ZM86.6551 20.6965C86.6804 21.334 86.7057 22.094 86.7057 23.2217V27.561C86.7057 29.0565 86.6804 30.5029 86.6804 31.7533C88.0962 31.7287 88.4501 31.7287 88.6271 31.4836C88.8546 31.1404 88.9304 30.7481 88.9304 30.1842V21.8488C88.9304 20.8191 88.9052 20.4514 88.7282 20.1082C87.6917 20.1082 86.9079 20.1817 86.6551 20.6965ZM86.5441 15.3729C86.5441 16.3535 86.8475 16.7948 87.7323 16.7948C88.7688 16.7948 89.0216 16.1819 89.0469 15.3239C89.0722 14.4413 88.8952 14 87.884 14C86.9739 14 86.5441 14.4658 86.5441 15.3729V15.3729ZM94.4327 29.2504V16.5021C94.4327 15.2763 94.4075 14.7125 94.2558 14.2221C93.2192 14.2221 92.4608 14.2957 92.208 14.8595C92.2333 15.595 92.2586 16.4286 92.2586 17.6299V30.0595C92.2586 30.133 92.2586 30.2311 92.2586 30.3046C92.2586 30.7949 92.4608 31.2607 92.8653 31.5304C93.1434 31.702 93.472 31.8491 93.7754 31.8491C94.4327 31.8246 94.9131 31.5794 95.1153 31.2853C95.1153 31.1627 95.1153 30.7214 95.1406 30.3782C94.3569 30.5253 94.4327 29.2504 94.4327 29.2504V29.2504ZM99.9855 29.2504V16.5021C99.9855 15.2763 99.9603 14.7125 99.8086 14.2221C98.772 14.2221 98.0136 14.2957 97.7608 14.8595C97.7861 15.595 97.8114 16.4286 97.8114 17.6299V30.0595C97.8114 30.133 97.8114 30.2311 97.8114 30.3046C97.8114 30.7949 98.0136 31.2607 98.4181 31.5304C98.6962 31.702 99.0249 31.8491 99.3282 31.8491C99.9855 31.8246 100.466 31.5794 100.668 31.2853C100.668 31.1627 100.668 30.7214 100.693 30.3782C99.9097 30.5253 99.9855 29.2504 99.9855 29.2504V29.2504ZM104.095 19.775C102.78 19.775 102.325 19.9221 102.148 20.3389C103.21 23.1827 104.98 28.8459 105.207 29.5814C105.384 30.0962 105.485 30.3904 105.713 30.7091C105.738 30.7582 105.789 30.7827 105.839 30.8317C105.485 32.2781 104.702 34.2639 104.019 34.6072C103.235 34.9259 102.578 34.6562 102.022 34.8278C102.022 34.8278 101.87 35.2691 101.87 35.4897C101.996 35.9065 102.603 36.2988 103.791 36.2988C104.904 36.2988 106.193 35.2446 107.584 31.7878C108.949 28.1104 110.213 23.7956 110.895 21.0743C110.971 20.8292 111.022 20.6085 111.022 20.4124C111.022 20.2163 110.971 20.0447 110.895 19.8976C110.39 19.8731 110.036 19.8485 109.783 19.8485C109.379 19.8485 109.227 19.8976 109.025 20.0692C108.671 21.5892 108.165 23.5259 107.735 25.3891C107.381 26.8846 107.002 28.4291 106.876 28.7724C106.8 28.5517 106.446 27.0072 106.041 25.5117C105.561 23.7956 104.853 21.5401 104.6 20.7556C104.499 20.3634 104.246 19.775 104.095 19.775V19.775ZM120.895 15.8966C120.617 15.9456 120.566 15.9946 120.516 16.0437L120.415 16.534C119.681 19.3778 118.974 22.2217 118.342 24.7714C117.988 26.4384 117.735 27.7623 117.558 28.9146C117.28 27.4436 116.951 26.0462 116.597 24.4036C115.839 21.3636 115.207 18.863 114.726 16.8037C114.701 16.6075 114.423 15.3572 114.246 15.3327C113.816 15.3327 113.462 15.3572 113.007 15.4062C112.527 15.4553 112.325 15.6759 112.198 15.9701C112.401 16.4359 112.83 18.4462 113.386 20.7752C114.246 24.0604 115.257 28.13 115.864 30.3365C115.965 30.7042 116.066 30.9739 116.117 31.121C116.117 31.121 116.85 31.7829 117.533 31.7094C118.038 31.6603 118.316 31.4887 118.67 31.2191C118.797 30.6797 119.909 26.2423 120.086 25.5313C120.566 23.7172 121.097 21.1675 121.401 19.6475C121.805 21.6088 122.285 23.9378 122.69 25.5559C123.196 27.4436 123.625 29.2333 124.005 30.7778C124.055 30.9494 124.08 31.072 124.131 31.2191C124.131 31.2191 124.864 31.8565 125.521 31.7584C126.027 31.7094 126.305 31.4887 126.634 31.2681C127.19 30.0178 128.631 24.1094 129.668 20.0398C130.047 18.6178 130.325 17.5146 130.603 16.534C130.729 16.0437 130.755 15.7495 130.755 15.6024V15.5043C130.552 15.4308 130.375 15.4062 130.097 15.4062C129.819 15.3572 129.516 15.3572 129.238 15.3327C128.985 15.3327 128.833 15.3327 128.757 15.4062C128.682 15.5288 128.656 15.7004 128.58 15.9211C128.075 18.1766 127.418 20.8243 126.482 24.3546C126.128 26.0462 125.8 27.4436 125.496 28.9881C125.193 27.4436 124.864 25.9726 124.485 24.2565C123.651 20.9223 122.993 18.3482 122.614 16.7791C122.513 16.3133 122.387 15.9701 122.21 15.7495C121.982 15.7495 121.755 15.774 121.527 15.7985C121.325 15.823 121.123 15.8475 120.895 15.8966V15.8966ZM136.159 29.9852C134.389 29.9852 133.201 29.1271 133.176 26.4303C133.58 26.4548 133.909 26.4548 134.313 26.4548C135.501 26.4548 136.816 26.4058 137.6 26.3078C138.282 26.2097 139.117 25.94 139.369 25.7439C139.471 25.3516 139.521 24.8123 139.521 24.2974C139.521 23.8807 139.496 23.4884 139.471 23.1207C139.243 21.0123 138.08 19.6639 135.805 19.6639C133.024 19.6639 130.951 21.4291 130.951 26.1607C130.951 28.1955 131.406 29.74 132.291 30.6226C133.277 31.5787 134.541 31.7993 135.729 31.7993C136.513 31.7993 137.271 31.6522 137.65 31.5542C138.358 31.3826 139.091 30.8677 139.117 30.3774C139.091 30.0832 139.041 29.6174 138.965 29.3968C138.156 29.8135 137.221 29.9852 136.159 29.9852V29.9852ZM176.139 29.9852C174.37 29.9852 173.182 29.1271 173.156 26.4303C173.561 26.4548 173.889 26.4548 174.294 26.4548C175.482 26.4548 176.797 26.4058 177.58 26.3078C178.263 26.2097 179.097 25.94 179.35 25.7439C179.451 25.3516 179.502 24.8123 179.502 24.2974C179.502 23.8807 179.477 23.4884 179.451 23.1207C179.224 21.0123 178.061 19.6639 175.785 19.6639C173.005 19.6639 170.931 21.4291 170.931 26.1607C170.931 28.1955 171.387 29.74 172.271 30.6226C173.257 31.5787 174.521 31.7993 175.71 31.7993C176.493 31.7993 177.252 31.6522 177.631 31.5542C178.339 31.3826 179.072 30.8677 179.097 30.3774C179.072 30.0832 179.021 29.6174 178.946 29.3968C178.137 29.8135 177.201 29.9852 176.139 29.9852V29.9852ZM135.552 21.4409C136.69 21.4409 137.246 22.1518 137.372 23.5247C137.372 23.6963 137.397 23.8679 137.397 24.0641C137.397 24.3828 137.347 24.677 137.271 24.8731C137.119 24.9712 136.917 24.9957 136.69 25.0202C136.209 25.0692 135.173 25.0937 134.187 25.0937H133.226C133.352 22.7157 134.313 21.6125 135.324 21.4654C135.4 21.4409 135.476 21.4409 135.552 21.4409V21.4409ZM175.533 21.4409C176.67 21.4409 177.226 22.1518 177.353 23.5247C177.353 23.6963 177.378 23.8679 177.378 24.0641C177.378 24.3828 177.328 24.677 177.252 24.8731C177.1 24.9712 176.898 24.9957 176.67 25.0202C176.19 25.0692 175.153 25.0937 174.167 25.0937H173.207C173.333 22.7157 174.294 21.6125 175.305 21.4654C175.381 21.4409 175.457 21.4409 175.533 21.4409V21.4409ZM141.796 21.38C141.847 21.6742 141.948 22.1155 142.176 22.3607C142.378 22.3607 142.631 22.2871 142.909 22.1646C143.642 21.8704 144.678 21.5271 145.563 21.5271C146.65 21.5271 146.777 22.14 146.777 23.2433V24.6407C146.549 24.5916 146.271 24.5671 145.942 24.5671C145.715 24.5671 145.487 24.5671 145.235 24.5916C143.718 24.7387 140.962 25.4987 140.962 28.5142C140.962 30.7697 142.504 31.7503 144.122 31.7503C144.805 31.7503 145.412 31.7013 145.968 31.4316C146.246 31.2845 146.549 31.0148 146.701 30.8677C146.954 31.211 147.611 31.7503 148.218 31.7503C148.875 31.7258 149.355 31.4561 149.558 31.1864C149.558 31.0393 149.558 30.6226 149.583 30.2793C148.774 30.4264 148.875 29.1516 148.875 29.1516C148.875 27.8523 148.926 25.891 148.926 24.1994V23.0962C148.926 21.0123 148.319 19.811 146.448 19.6884C146.018 19.6639 145.968 19.6639 145.563 19.6639C143.869 19.713 142.353 20.3504 141.822 20.8407C141.796 20.9142 141.771 21.0123 141.771 21.1104C141.771 21.2084 141.771 21.3065 141.796 21.38V21.38ZM146.718 28.8077C146.693 28.9547 146.668 29.1018 146.642 29.1509C146.288 29.5676 145.454 29.9109 144.696 29.9109H144.519C143.735 29.8618 143.179 29.4206 143.179 28.1702C143.179 26.6257 144.215 26.1109 145.429 25.9148C145.682 25.8902 145.96 25.8657 146.263 25.8657C146.44 25.8657 146.617 25.8657 146.769 25.8902V27.6309C146.769 28.1457 146.769 28.5135 146.718 28.8077V28.8077ZM157.511 29.5983C157.308 29.7699 156.145 30.1131 155.766 30.0886C154.755 30.0886 154.527 29.1325 154.426 27.7596C154.426 26.9506 154.401 25.9944 154.401 24.9157C154.401 23.8615 154.426 22.7093 154.452 21.5816C155.539 21.5816 155.867 21.5816 156.525 21.557C156.727 21.557 156.929 21.5325 157.131 21.508C157.485 21.4345 157.637 21.1648 157.713 19.939H154.452C154.452 18.9338 154.477 17.9042 154.502 16.7764C153.314 16.85 152.783 17.2667 152.606 17.7571L152.48 19.9635C152.1 20.1351 151.317 20.2087 150.963 20.5029C150.761 20.699 150.735 20.6009 150.735 21.3609C151.039 21.508 151.443 21.6061 152.252 21.6061V27.6615C152.252 29.6473 152.682 31.7802 155.033 31.7802C155.817 31.7802 156.676 31.6086 157.157 31.3144C157.359 31.1673 157.485 31.0202 157.536 30.8241C157.561 30.6034 157.561 30.3583 157.561 30.1376C157.561 29.9415 157.536 29.7454 157.511 29.5983V29.5983ZM161.925 31.4943C162.127 31.1511 162.178 30.7343 162.178 30.2195V22.7666C162.759 22.2028 163.644 21.6634 164.655 21.6634C165.591 21.6634 166.445 22.0802 166.521 23.6247C166.571 23.8699 166.571 24.2131 166.571 24.6789V30.6118C166.571 31.0776 166.622 31.4453 166.748 31.7395C168.265 31.7395 168.568 31.6905 168.821 31.4453C168.796 30.5382 168.796 29.4105 168.796 28.0621V24.4583C168.796 21.1976 168.088 19.8492 165.636 19.8492C165.004 19.8492 164.226 19.9718 163.77 20.1434C163.265 20.3396 162.683 20.6828 162.178 21.1486V15.9512C162.178 14.9215 162.127 14.6028 161.975 14.3331C160.914 14.3331 160.256 14.4312 159.953 14.9706C159.978 15.5344 160.004 16.2454 160.004 17.2751V26.6402C160.004 28.6505 159.978 30.3176 159.953 31.7395C161.293 31.7395 161.596 31.7395 161.925 31.4943ZM186.306 21.8693C186.432 21.8693 186.584 21.8693 186.761 21.9183C186.963 21.9428 187.191 21.9674 187.368 21.9674C187.494 21.9674 187.494 21.9674 187.595 21.9428C187.899 21.5016 188 20.8641 188 20.5209C187.924 20.1777 187.57 19.9816 186.913 19.908C186.458 19.8345 186.028 19.957 185.548 20.1041C185.017 20.2758 184.41 20.5699 183.828 21.0603C183.702 20.6435 183.5 20.3248 183.045 20.3248C182.994 20.3248 182.944 20.3248 182.868 20.3493C182.286 20.5945 181.983 20.7661 181.831 20.9132C182.008 21.4035 182.16 21.9674 182.16 22.7519L182.135 26.8951C182.135 28.8073 182.109 30.3763 182.084 31.7002C183.449 31.7002 183.753 31.6757 184.081 31.455C184.284 31.1854 184.309 30.8912 184.309 30.4744V22.6538C184.814 22.139 185.472 21.8693 186.306 21.8693V21.8693Z" fill="white" fill-opacity="0.01"/>
</g>
<path d="M33.5605 4.99219C45.6841 2.61413 56.1566 4.65758 56.9521 9.55664C57.4029 12.3354 54.6413 15.4339 49.9551 18.0312C50.3386 18.7182 50.5078 19.7099 50.3867 21.0322C50.0723 24.4691 46.719 28.4938 36.9551 29.6289C33.5848 30.0209 30.3973 30.013 27.6523 29.6777C28.1787 31.9446 30.49 33.3423 34.2676 32.9951C36.9736 32.7465 39.3194 31.8931 40.7256 30.7812C41.4328 32.7197 37.8748 35.3804 34.3418 35.4326C31.8823 35.4683 29.645 34.8124 28.0518 33.7021C29.5744 37.7315 33.1795 38.1878 34.8457 38.3623C34.7145 39.0898 31.8843 40.0997 29.1836 38.0684C27.0138 36.4361 27.0063 34.1313 27.293 33.0938C26.5748 32.4291 26.0558 31.6492 25.7988 30.7881C25.6918 30.4295 25.6379 29.6697 25.6455 29.3584C21.535 28.54 18.7956 26.8837 18.5771 24.6953C18.5148 24.0738 18.6597 23.4474 18.9873 22.8291C15.6008 21.9106 13.3963 20.3133 13.0479 18.168C12.2531 13.2688 21.4367 7.36973 33.5605 4.99219ZM46.1104 19.8672C43.2519 21.0456 39.9707 22.0397 36.4395 22.7324C30.6669 23.8644 25.2689 23.9915 21.1113 23.2881C21.0614 23.5151 21.0603 23.7514 21.0518 24.041C20.9706 26.8246 26.1598 28.4314 34.4648 27.334C42.7701 26.2365 46.7863 23.5262 46.4756 20.7627C46.4395 20.4448 46.3144 20.146 46.1104 19.8672ZM50.8984 10.5645C50.3665 7.99395 43.3766 6.39956 33.4961 8.80469C23.6145 11.2099 16.0349 15.2438 16.5664 17.8145C17.0977 20.3841 25.5384 20.5181 35.4189 18.1123C45.3006 15.7071 51.4292 13.1351 50.8984 10.5645Z" fill="white"/>
<path fill-rule="evenodd" clip-rule="evenodd" d="M74.2509 15.8966C73.9728 15.9456 73.9223 15.9946 73.8717 16.0437L73.7706 16.534C73.0374 19.3778 72.3295 22.2217 71.6975 24.7713C71.3436 26.4384 71.0908 27.7623 70.9138 28.9145C70.6357 27.4436 70.307 26.0462 69.9531 24.4036C69.1947 21.3636 68.5627 18.863 68.0823 16.8036C68.057 16.6075 67.7789 15.3572 67.602 15.3327C67.1722 15.3327 66.8183 15.3572 66.3632 15.4062C65.8828 15.4553 65.6806 15.6759 65.5542 15.9701C65.7564 16.4359 66.1862 18.4462 66.7424 20.7752C67.602 24.0604 68.6132 28.13 69.22 30.3365C69.3211 30.7042 69.4222 30.9739 69.4728 31.121C69.4728 31.121 70.2059 31.7829 70.8885 31.7094C71.3941 31.6603 71.6722 31.4887 72.0262 31.219C72.1526 30.6797 73.2649 26.2423 73.4419 25.5313C73.9223 23.7172 74.4532 21.1675 74.7565 19.6475C75.161 21.6088 75.6414 23.9378 76.0459 25.5559C76.5515 27.4436 76.9813 29.2332 77.3605 30.7778C77.4111 30.9494 77.4363 31.0719 77.4869 31.219C77.4869 31.219 78.22 31.8565 78.8774 31.7584C79.383 31.7094 79.6611 31.4887 79.9897 31.2681C80.5459 30.0178 81.9869 24.1094 83.0235 20.0398C83.4027 18.6178 83.6808 17.5146 83.9589 16.534C84.0853 16.0437 84.1106 15.7495 84.1106 15.6024V15.5043C83.9083 15.4308 83.7313 15.4062 83.4532 15.4062C83.1752 15.3572 82.8718 15.3572 82.5937 15.3327C82.3409 15.3327 82.1892 15.3327 82.1133 15.4062C82.0375 15.5288 82.0122 15.7004 81.9364 15.9211C81.4308 18.1765 80.7734 20.8243 79.838 24.3546C79.4841 26.0462 79.1555 27.4436 78.8521 28.9881C78.5487 27.4436 78.22 25.9726 77.8408 24.2565C77.0066 20.9223 76.3492 18.3482 75.97 16.7791C75.8689 16.3133 75.7425 15.9701 75.5655 15.7495C75.338 15.7495 75.1105 15.774 74.8829 15.7985C74.6807 15.823 74.4784 15.8475 74.2509 15.8966V15.8966ZM86.6551 20.6965C86.6804 21.334 86.7057 22.0939 86.7057 23.2217V27.561C86.7057 29.0565 86.6804 30.5029 86.6804 31.7532C88.0962 31.7287 88.4501 31.7287 88.6271 31.4836C88.8546 31.1403 88.9304 30.7481 88.9304 30.1842V21.8488C88.9304 20.8191 88.9052 20.4514 88.7282 20.1082C87.6917 20.1082 86.9079 20.1817 86.6551 20.6965ZM86.5441 15.3729C86.5441 16.3535 86.8475 16.7948 87.7323 16.7948C88.7688 16.7948 89.0216 16.1819 89.0469 15.3239C89.0722 14.4413 88.8952 14 87.884 14C86.9739 14 86.5441 14.4658 86.5441 15.3729V15.3729ZM94.4327 29.2504V16.5021C94.4327 15.2763 94.4075 14.7124 94.2558 14.2221C93.2192 14.2221 92.4608 14.2957 92.208 14.8595C92.2333 15.595 92.2586 16.4286 92.2586 17.6298V30.0594C92.2586 30.133 92.2586 30.2311 92.2586 30.3046C92.2586 30.7949 92.4608 31.2607 92.8653 31.5304C93.1434 31.702 93.4721 31.8491 93.7754 31.8491C94.4327 31.8246 94.9131 31.5794 95.1153 31.2852C95.1153 31.1627 95.1153 30.7214 95.1406 30.3782C94.3569 30.5253 94.4327 29.2504 94.4327 29.2504V29.2504ZM99.9855 29.2504V16.5021C99.9855 15.2763 99.9603 14.7124 99.8086 14.2221C98.7721 14.2221 98.0136 14.2957 97.7608 14.8595C97.7861 15.595 97.8114 16.4286 97.8114 17.6298V30.0594C97.8114 30.133 97.8114 30.2311 97.8114 30.3046C97.8114 30.7949 98.0136 31.2607 98.4181 31.5304C98.6962 31.702 99.0249 31.8491 99.3282 31.8491C99.9855 31.8246 100.466 31.5794 100.668 31.2852C100.668 31.1627 100.668 30.7214 100.693 30.3782C99.9097 30.5253 99.9855 29.2504 99.9855 29.2504V29.2504ZM104.095 19.775C102.78 19.775 102.325 19.9221 102.148 20.3388C103.21 23.1827 104.98 28.8459 105.207 29.5814C105.384 30.0962 105.485 30.3904 105.713 30.7091C105.738 30.7581 105.789 30.7827 105.839 30.8317C105.485 32.2781 104.702 34.2639 104.019 34.6071C103.235 34.9259 102.578 34.6562 102.022 34.8278C102.022 34.8278 101.87 35.2691 101.87 35.4897C101.996 35.9065 102.603 36.2987 103.791 36.2987C104.904 36.2987 106.193 35.2446 107.584 31.7878C108.949 28.1104 110.213 23.7956 110.895 21.0743C110.971 20.8292 111.022 20.6085 111.022 20.4124C111.022 20.2163 110.971 20.0447 110.895 19.8976C110.39 19.873 110.036 19.8485 109.783 19.8485C109.379 19.8485 109.227 19.8976 109.025 20.0692C108.671 21.5892 108.165 23.5259 107.735 25.3891C107.381 26.8846 107.002 28.4291 106.876 28.7723C106.8 28.5517 106.446 27.0072 106.041 25.5117C105.561 23.7956 104.853 21.5401 104.6 20.7556C104.499 20.3634 104.246 19.775 104.095 19.775V19.775ZM120.895 15.8966C120.617 15.9456 120.566 15.9946 120.516 16.0437L120.415 16.534C119.681 19.3778 118.974 22.2217 118.342 24.7713C117.988 26.4384 117.735 27.7623 117.558 28.9145C117.28 27.4436 116.951 26.0462 116.597 24.4036C115.839 21.3636 115.207 18.863 114.726 16.8036C114.701 16.6075 114.423 15.3572 114.246 15.3327C113.816 15.3327 113.462 15.3572 113.007 15.4062C112.527 15.4553 112.325 15.6759 112.198 15.9701C112.401 16.4359 112.83 18.4462 113.386 20.7752C114.246 24.0604 115.257 28.13 115.864 30.3365C115.965 30.7042 116.066 30.9739 116.117 31.121C116.117 31.121 116.85 31.7829 117.533 31.7094C118.038 31.6603 118.316 31.4887 118.67 31.219C118.797 30.6797 119.909 26.2423 120.086 25.5313C120.566 23.7172 121.097 21.1675 121.401 19.6475C121.805 21.6088 122.285 23.9378 122.69 25.5559C123.196 27.4436 123.625 29.2332 124.005 30.7778C124.055 30.9494 124.08 31.0719 124.131 31.219C124.131 31.219 124.864 31.8565 125.521 31.7584C126.027 31.7094 126.305 31.4887 126.634 31.2681C127.19 30.0178 128.631 24.1094 129.668 20.0398C130.047 18.6178 130.325 17.5146 130.603 16.534C130.729 16.0437 130.755 15.7495 130.755 15.6024V15.5043C130.552 15.4308 130.375 15.4062 130.097 15.4062C129.819 15.3572 129.516 15.3572 129.238 15.3327C128.985 15.3327 128.833 15.3327 128.757 15.4062C128.682 15.5288 128.656 15.7004 128.58 15.9211C128.075 18.1765 127.418 20.8243 126.482 24.3546C126.128 26.0462 125.8 27.4436 125.496 28.9881C125.193 27.4436 124.864 25.9726 124.485 24.2565C123.651 20.9223 122.993 18.3482 122.614 16.7791C122.513 16.3133 122.387 15.9701 122.21 15.7495C121.982 15.7495 121.755 15.774 121.527 15.7985C121.325 15.823 121.123 15.8475 120.895 15.8966V15.8966ZM136.159 29.9851C134.389 29.9851 133.201 29.1271 133.176 26.4303C133.58 26.4548 133.909 26.4548 134.313 26.4548C135.501 26.4548 136.816 26.4058 137.6 26.3077C138.282 26.2097 139.117 25.94 139.369 25.7439C139.471 25.3516 139.521 24.8123 139.521 24.2974C139.521 23.8807 139.496 23.4884 139.471 23.1207C139.243 21.0123 138.08 19.6639 135.805 19.6639C133.024 19.6639 130.951 21.4291 130.951 26.1606C130.951 28.1955 131.406 29.74 132.291 30.6226C133.277 31.5787 134.541 31.7993 135.729 31.7993C136.513 31.7993 137.271 31.6522 137.65 31.5542C138.358 31.3825 139.091 30.8677 139.117 30.3774C139.091 30.0832 139.041 29.6174 138.965 29.3968C138.156 29.8135 137.221 29.9851 136.159 29.9851V29.9851ZM176.139 29.9851C174.37 29.9851 173.182 29.1271 173.156 26.4303C173.561 26.4548 173.889 26.4548 174.294 26.4548C175.482 26.4548 176.797 26.4058 177.58 26.3077C178.263 26.2097 179.097 25.94 179.35 25.7439C179.451 25.3516 179.502 24.8123 179.502 24.2974C179.502 23.8807 179.477 23.4884 179.451 23.1207C179.224 21.0123 178.061 19.6639 175.785 19.6639C173.005 19.6639 170.931 21.4291 170.931 26.1606C170.931 28.1955 171.387 29.74 172.271 30.6226C173.257 31.5787 174.521 31.7993 175.71 31.7993C176.493 31.7993 177.252 31.6522 177.631 31.5542C178.339 31.3825 179.072 30.8677 179.097 30.3774C179.072 30.0832 179.021 29.6174 178.946 29.3968C178.137 29.8135 177.201 29.9851 176.139 29.9851V29.9851ZM135.552 21.4408C136.69 21.4408 137.246 22.1518 137.372 23.5247C137.372 23.6963 137.397 23.8679 137.397 24.0641C137.397 24.3828 137.347 24.677 137.271 24.8731C137.119 24.9711 136.917 24.9957 136.69 25.0202C136.209 25.0692 135.173 25.0937 134.187 25.0937H133.226C133.352 22.7157 134.313 21.6125 135.324 21.4654C135.4 21.4408 135.476 21.4408 135.552 21.4408V21.4408ZM175.533 21.4408C176.67 21.4408 177.226 22.1518 177.353 23.5247C177.353 23.6963 177.378 23.8679 177.378 24.0641C177.378 24.3828 177.328 24.677 177.252 24.8731C177.1 24.9711 176.898 24.9957 176.67 25.0202C176.19 25.0692 175.153 25.0937 174.167 25.0937H173.207C173.333 22.7157 174.294 21.6125 175.305 21.4654C175.381 21.4408 175.457 21.4408 175.533 21.4408V21.4408ZM141.796 21.38C141.847 21.6742 141.948 22.1155 142.176 22.3607C142.378 22.3607 142.631 22.2871 142.909 22.1645C143.642 21.8704 144.678 21.5271 145.563 21.5271C146.65 21.5271 146.777 22.14 146.777 23.2432V24.6407C146.549 24.5916 146.271 24.5671 145.942 24.5671C145.715 24.5671 145.487 24.5671 145.235 24.5916C143.718 24.7387 140.962 25.4987 140.962 28.5142C140.962 30.7697 142.504 31.7503 144.122 31.7503C144.805 31.7503 145.412 31.7013 145.968 31.4316C146.246 31.2845 146.549 31.0148 146.701 30.8677C146.954 31.2109 147.611 31.7503 148.218 31.7503C148.875 31.7258 149.355 31.4561 149.558 31.1864C149.558 31.0393 149.558 30.6226 149.583 30.2793C148.774 30.4264 148.875 29.1516 148.875 29.1516C148.875 27.8522 148.926 25.891 148.926 24.1994V23.0961C148.926 21.0123 148.319 19.811 146.448 19.6884C146.018 19.6639 145.968 19.6639 145.563 19.6639C143.869 19.7129 142.353 20.3504 141.822 20.8407C141.796 20.9142 141.771 21.0123 141.771 21.1104C141.771 21.2084 141.771 21.3065 141.796 21.38V21.38ZM146.718 28.8076C146.693 28.9547 146.668 29.1018 146.642 29.1509C146.288 29.5676 145.454 29.9109 144.696 29.9109H144.519C143.735 29.8618 143.179 29.4205 143.179 28.1702C143.179 26.6257 144.215 26.1109 145.429 25.9148C145.682 25.8902 145.96 25.8657 146.263 25.8657C146.44 25.8657 146.617 25.8657 146.769 25.8902V27.6309C146.769 28.1457 146.769 28.5134 146.718 28.8076V28.8076ZM157.511 29.5983C157.308 29.7699 156.145 30.1131 155.766 30.0886C154.755 30.0886 154.527 29.1325 154.426 27.7596C154.426 26.9505 154.401 25.9944 154.401 24.9157C154.401 23.8615 154.426 22.7093 154.452 21.5815C155.539 21.5815 155.867 21.5815 156.525 21.557C156.727 21.557 156.929 21.5325 157.131 21.508C157.485 21.4345 157.637 21.1648 157.713 19.939H154.452C154.452 18.9338 154.477 17.9042 154.502 16.7764C153.314 16.85 152.783 17.2667 152.606 17.7571L152.48 19.9635C152.1 20.1351 151.317 20.2087 150.963 20.5028C150.761 20.699 150.735 20.6009 150.735 21.3609C151.039 21.508 151.443 21.6061 152.252 21.6061V27.6615C152.252 29.6473 152.682 31.7802 155.033 31.7802C155.817 31.7802 156.676 31.6086 157.157 31.3144C157.359 31.1673 157.485 31.0202 157.536 30.8241C157.561 30.6034 157.561 30.3583 157.561 30.1376C157.561 29.9415 157.536 29.7454 157.511 29.5983V29.5983ZM161.925 31.4943C162.127 31.1511 162.178 30.7343 162.178 30.2195V22.7666C162.759 22.2028 163.644 21.6634 164.655 21.6634C165.591 21.6634 166.445 22.0802 166.521 23.6247C166.571 23.8699 166.571 24.2131 166.571 24.6789V30.6118C166.571 31.0776 166.622 31.4453 166.748 31.7395C168.265 31.7395 168.568 31.6905 168.821 31.4453C168.796 30.5382 168.796 29.4105 168.796 28.0621V24.4582C168.796 21.1976 168.088 19.8492 165.636 19.8492C165.004 19.8492 164.226 19.9718 163.77 20.1434C163.265 20.3396 162.683 20.6828 162.178 21.1486V15.9512C162.178 14.9215 162.127 14.6028 161.975 14.3331C160.914 14.3331 160.256 14.4312 159.953 14.9706C159.978 15.5344 160.004 16.2454 160.004 17.2751V26.6402C160.004 28.6505 159.978 30.3176 159.953 31.7395C161.293 31.7395 161.596 31.7395 161.925 31.4943ZM186.306 21.8693C186.432 21.8693 186.584 21.8693 186.761 21.9183C186.963 21.9428 187.191 21.9673 187.368 21.9673C187.494 21.9673 187.494 21.9673 187.595 21.9428C187.899 21.5015 188 20.8641 188 20.5209C187.924 20.1777 187.57 19.9816 186.913 19.908C186.458 19.8345 186.028 19.957 185.548 20.1041C185.017 20.2757 184.41 20.5699 183.828 21.0603C183.702 20.6435 183.5 20.3248 183.045 20.3248C182.994 20.3248 182.944 20.3248 182.868 20.3493C182.286 20.5945 181.983 20.7661 181.831 20.9132C182.008 21.4035 182.16 21.9673 182.16 22.7519L182.135 26.8951C182.135 28.8073 182.109 30.3763 182.084 31.7002C183.449 31.7002 183.753 31.6757 184.081 31.455C184.284 31.1854 184.309 30.8912 184.309 30.4744V22.6538C184.814 22.139 185.472 21.8693 186.306 21.8693V21.8693Z" fill="white"/>
</g>
<defs>
<filter id="filter0_d_765_1206" x="3" y="-2" width="195" height="55.2664" filterUnits="userSpaceOnUse" color-interpolation-filters="sRGB">
<feFlood flood-opacity="0" result="BackgroundImageFix"/>
<feColorMatrix in="SourceAlpha" type="matrix" values="0 0 0 0 0 0 0 0 0 0 0 0 0 0 0 0 0 0 127 0" result="hardAlpha"/>
<feOffset dy="4"/>
<feGaussianBlur stdDeviation="5"/>
<feComposite in2="hardAlpha" operator="out"/>
<feColorMatrix type="matrix" values="0 0 0 0 0 0 0 0 0 0 0 0 0 0 0 0 0 0 0.4 0"/>
<feBlend mode="normal" in2="BackgroundImageFix" result="effect1_dropShadow_765_1206"/>
<feBlend mode="normal" in="SourceGraphic" in2="effect1_dropShadow_765_1206" result="shape"/>
</filter>
<clipPath id="clip0_765_1206">
<rect width="201" height="55" fill="white"/>
</clipPath>
</defs>
</svg>
